<svg id="LOGO" xmlns="http://www.w3.org/2000/svg" xmlns:xlink="http://www.w3.org/1999/xlink" width="324.894" height="28.497" viewBox="0 0 324.894 28.497">
  <defs>
    <clipPath id="clip-path">
      <rect id="Rectangle_288" data-name="Rectangle 288" width="39.407" height="28.497" fill="#e44200"/>
    </clipPath>
    <clipPath id="clip-path-2">
      <rect id="Rectangle_289" data-name="Rectangle 289" width="270.293" height="27.765" fill="#e44200"/>
    </clipPath>
  </defs>
  <g id="Group_33" data-name="Group 33">
    <g id="Group_32" data-name="Group 32" clip-path="url(#clip-path)">
      <g id="Group_31" data-name="Group 31" transform="translate(-0.001 0)">
        <path id="Path_30" data-name="Path 30" d="M472.019,912.847,472,894.421a7.9,7.9,0,1,1,7.9,7.82,7.984,7.984,0,0,1-1.843-.214v1.026a9.1,9.1,0,0,0,1.843.188,8.82,8.82,0,1,0-8.866-8.82l0,18.426h-1.263l0-8.453a10.154,10.154,0,0,1-3.156-1.661,10.06,10.06,0,1,1,3.785-11.808,10.14,10.14,0,1,1,9.5,13.567,10.418,10.418,0,0,1-1.843-.165v8.52h-1.263l0-18.426a3.1,3.1,0,1,1,1.26,2.464v1.278a4.244,4.244,0,0,0,1.843.419,4.162,4.162,0,1,0-4.2-4.161l-.009,18.426h-1.263l.009-18.426a5.458,5.458,0,1,1,3.624,5.094v1.222a6.76,6.76,0,0,0,1.843.254,6.571,6.571,0,1,0-6.635-6.57l.018,18.426ZM460.853,885.6a8.82,8.82,0,1,0,4.788,16.27,9.949,9.949,0,0,1-.684-.759,7.811,7.811,0,1,1,3.8-6.691,4.718,4.718,0,0,0,1.012,2.9v-2.9A8.879,8.879,0,0,0,460.853,885.6Zm3.078,9.206h.044a8.833,8.833,0,0,0,5.795,8.264V901.94a8.45,8.45,0,0,1-4.708-7.519,4.208,4.208,0,1,0-4.209,4.161,4.275,4.275,0,0,0,2.346-.7,9.565,9.565,0,0,1-.3-1.157,3.122,3.122,0,0,1-2.047.763,3.071,3.071,0,1,1,3.078-2.681Zm-3.078-6.958a6.571,6.571,0,1,0,3.374,12.239,10.191,10.191,0,0,1-.558-1.022,5.566,5.566,0,0,1-2.816.766,5.412,5.412,0,1,1,5.47-5.411,7.229,7.229,0,0,0,3.447,6.113V899a5.573,5.573,0,0,1-2.274-4.571A6.618,6.618,0,0,0,460.853,887.849ZM479.9,892.6a1.818,1.818,0,1,0,1.838,1.82A1.832,1.832,0,0,0,479.9,892.6Zm-19.046,0a1.818,1.818,0,1,0,1.839,1.82A1.833,1.833,0,0,0,460.853,892.6Z" transform="translate(-450.671 -884.351)" fill="#e44200"/>
      </g>
    </g>
  </g>
  <g id="Group_36" data-name="Group 36" transform="translate(54.601 0.566)">
    <g id="Group_35" data-name="Group 35" clip-path="url(#clip-path-2)">
      <g id="Group_34" data-name="Group 34" transform="translate(0 -0.001)">
        <path id="Path_31" data-name="Path 31" d="M590.285,912.439h-1.5v-9.767l7.34.021a7.99,7.99,0,1,0-8-8.059V912.4h-1.5V894.634a9.5,9.5,0,1,1,9.5,9.541l-5.841-.016Zm33.385-.028c-.057,0-.113,0-.172,0h-9.762c-3.624-.018-5.963-2.562-5.963-6.484l.011-20.014h1.5l-.012,20.014c0,2.406,1.173,4.983,4.469,5h9.78c2.07.086,2.876-1.575,4.262-5l.106-.263,5.554-14.95c.168-.4.287-.754.393-1.07.37-1.089.751-2.215,2.309-2.4,2.167-.251,2.667.849,3.512,3.174l3.775,10.493c.064.132.151.3.229.463a2.65,2.65,0,0,1,.28,2.585c-.59,1.284-2.034,1.822-3.787,1.417h-5.71a2.856,2.856,0,0,0-2.19.659,2.642,2.642,0,0,0-.119,3.989,2.86,2.86,0,0,0,2.068.787H650.26l13.705.039a4.648,4.648,0,0,0,3.58-1.843,6.835,6.835,0,0,0,1.515-4.273c0-3.086-2.523-6.114-5.1-6.114h-3.916a5.356,5.356,0,0,1-5.935-5.038c-.183-2.7,1.581-5.753,5.876-6.079l28.663,0c1.045,0,2.991,0,2.991,1.924a2.07,2.07,0,0,1-.549,1.571c-.636.614-1.591.589-3.044.547l-3.273-.005h-.011a3.362,3.362,0,0,0-2.048.924,3.812,3.812,0,0,0-.757,2.213l0,17.449h-1.5V894.633a5.335,5.335,0,0,1,1.152-3.177,5.212,5.212,0,0,1,3.17-1.4l3.308.005a4.9,4.9,0,0,0,1.955-.13c.016-.016.1-.11.1-.507,0-.265,0-.442-1.492-.442h-28.6c-3.241.249-4.577,2.441-4.439,4.5a3.914,3.914,0,0,0,4.4,3.654l3.959,0c3.392,0,6.6,3.691,6.6,7.6a8.326,8.326,0,0,1-1.85,5.208,6.13,6.13,0,0,1-4.746,2.392l-29.719-.04a4.214,4.214,0,1,1,.285-8.4l5.807-.005.087.023c.4.1,1.728.347,2.151-.572.179-.384.124-.551-.257-1.308-.087-.174-.181-.359-.277-.568l-3.8-10.549c-.851-2.329-.984-2.313-1.921-2.2-.571.067-.686.272-1.067,1.4-.117.342-.246.722-.418,1.133l-5.665,15.231C627.833,909.786,626.769,912.409,623.67,912.411ZM482.889,912.4l-1.405-.517,8.912-23.732a5.121,5.121,0,0,1,9.231-1.006l5.16,13.758a3.938,3.938,0,0,1,.284,4.029,4.164,4.164,0,0,1-3.629,2.6l-8.258,0a.738.738,0,0,0-.6.1.573.573,0,0,0-.237.4.555.555,0,0,0,.174.431.5.5,0,0,0,.431.177h17.033a1.291,1.291,0,0,0,1.253-.4,1.16,1.16,0,0,0,.385-1.019V894.639c.1-3.109.259-4.957,2.284-7.126a8.43,8.43,0,0,1,6.624-2.828,8.818,8.818,0,0,1,7.081,2.713,8.334,8.334,0,0,1,2.7,6.558,8.74,8.74,0,0,1-4.016,7.5,10.835,10.835,0,0,1-4.127,1.768,2.447,2.447,0,0,0-1.962,2.418,2.483,2.483,0,0,0,1.869,2.574h8.478V909.7l-8.766-.024a3.961,3.961,0,0,1-3.08-4.086,3.9,3.9,0,0,1,2.977-3.772,9.623,9.623,0,0,0,3.716-1.552,7.213,7.213,0,0,0,3.411-6.325,6.83,6.83,0,0,0-2.265-5.5,7.308,7.308,0,0,0-5.974-2.274,7,7,0,0,0-5.57,2.353c-1.669,1.787-1.79,3.255-1.885,6.142v12.529a2.6,2.6,0,0,1-.808,2.088,2.684,2.684,0,0,1-2.422.845l-16.9.005a2.036,2.036,0,0,1-1.3-3.682,2.078,2.078,0,0,1,1.655-.377l8.033-.014a2.636,2.636,0,0,0,2.327-1.72,2.605,2.605,0,0,0-.237-2.769l-5.178-13.786a3.63,3.63,0,0,0-6.468.854Zm2.816,0-1.405-.514,7.884-21.175c.167-.4.284-.749.39-1.064.37-1.091.753-2.218,2.311-2.4,2.16-.251,2.665.849,3.512,3.174l3.776,10.493c.064.132.151.305.23.465a2.649,2.649,0,0,1,.275,2.585c-.592,1.282-2.041,1.815-3.785,1.415h-5.71a2.858,2.858,0,0,0-2.19.659,2.642,2.642,0,0,0-.119,3.989,2.875,2.875,0,0,0,2.068.787h17.036c1.774,0,2.628-.1,3.376-1.084a3.275,3.275,0,0,0,.548-2.394l.032-12.7c.1-2.948.218-4.2,2.139-5.9a6.37,6.37,0,0,1,4.444-1.664,6.632,6.632,0,0,1,5.134,1.759,6.4,6.4,0,0,1,2.373,5.543,6.164,6.164,0,0,1-3.415,5.569,10.321,10.321,0,0,1-2.2.8,6.274,6.274,0,0,0-2.484,1.094c-1.776,1.4-2.305,2.539-2.105,4.492a4.67,4.67,0,0,0,3.994,4.3l8.74-.012V912.1h-8.876a6.194,6.194,0,0,1-5.35-5.618c-.252-2.46.494-4.084,2.66-5.8a7.645,7.645,0,0,1,3.023-1.366,8.98,8.98,0,0,0,1.9-.679,4.671,4.671,0,0,0,2.619-4.335,4.91,4.91,0,0,0-1.871-4.357,5.115,5.115,0,0,0-4.077-1.383,4.889,4.889,0,0,0-3.505,1.287c-1.407,1.24-1.536,1.864-1.637,4.817l-.032,12.529a4.811,4.811,0,0,1-.849,3.43c-1.186,1.552-2.642,1.671-4.574,1.671H492.985a4.214,4.214,0,1,1,.285-8.4l5.807-.005.087.023c.4.1,1.724.347,2.149-.572.179-.386.126-.551-.253-1.308-.087-.174-.181-.361-.275-.57l-3.8-10.547c-.849-2.329-.978-2.313-1.921-2.2-.572.067-.686.272-1.069,1.4-.117.342-.245.721-.415,1.129Zm248.857-.1a4.285,4.285,0,0,1-2.938-1.214,4.121,4.121,0,0,1,.188-6.176,4.27,4.27,0,0,1,3.255-1.013l5.8-.005.091.023c.4.1,1.728.347,2.153-.572.177-.384.124-.551-.257-1.308-.087-.174-.181-.359-.275-.57l-3.8-10.547c-.843-2.322-.968-2.311-1.921-2.2-.572.067-.686.274-1.067,1.4-.117.342-.246.719-.415,1.126l-4.978,13a14.016,14.016,0,0,1-12.624,7.947,13.756,13.756,0,1,1,10.7-22.541l-1.154.949a12.245,12.245,0,1,0,1.7,13.067l4.964-12.965c.163-.394.28-.742.386-1.055.37-1.093.753-2.222,2.313-2.4,2.155-.254,2.667.849,3.51,3.174l3.776,10.493c.064.132.151.305.23.466a2.647,2.647,0,0,1,.277,2.581c-.592,1.282-2.036,1.822-3.789,1.417h-5.7a2.864,2.864,0,0,0-2.194.658,2.649,2.649,0,0,0-.12,3.991,2.86,2.86,0,0,0,2.072.787h17.037V912.3H734.783C734.709,912.3,734.636,912.3,734.562,912.3ZM569.808,912.2a13.937,13.937,0,0,1-11.83-6.539,14.034,14.034,0,0,1-11.857,6.539,13.756,13.756,0,1,1,10.7-22.541l-1.154.949a12.247,12.247,0,1,0,1.478,13.509c-.19-.416-.361-.842-.51-1.278a11.311,11.311,0,1,1-1.8-11.666l-1.145.956a9.772,9.772,0,1,0,2.267,7.531c-.036-.4-.053-.807-.053-1.215a13.9,13.9,0,1,1,13.9,13.756Zm-12.341-12.523A12.4,12.4,0,1,0,574.8,887.207a12.141,12.141,0,0,0-4.991-1.038,12.35,12.35,0,0,0-12.4,12.273h.129A11.345,11.345,0,0,1,557.468,899.674Zm143.2,12.451h-1.5V885.293h1.5Zm-2.288,0h-1.5V885.293h1.5Zm-14.175,0h-1.5l.009-17.743a1.994,1.994,0,0,1,.5-1.433,1.762,1.762,0,0,1,1.565-.666h5.368a2.634,2.634,0,0,0,2.367-2.835,2.546,2.546,0,0,0-2.376-2.686H659.3a6.55,6.55,0,0,0-6.108,6.432c-.057,2.657,1.54,5.676,6.19,6.176l3.838,0a4.725,4.725,0,0,1,3.4,1.341,5.648,5.648,0,0,1,.05,8.01,4.733,4.733,0,0,1-3.464,1.394l-28.963.021a2.037,2.037,0,0,1-1.31-3.679,2.081,2.081,0,0,1,1.66-.38l8.031-.014a2.64,2.64,0,0,0,2.328-1.72c.427-.964.237-1.62-.3-2.888l-5.114-13.667a3.629,3.629,0,0,0-6.466.854l-6.362,16.972c-.246.6-.432,1.112-.594,1.55-.852,2.311-1.3,3.091-3.985,3.023h-8.263a3.769,3.769,0,0,1-2.775-.928c-.957-.957-.945-2.39-.934-3.775,0-.337.005-.677-.007-1.013V885.909h1.5v18.533c.012.33.011.691.007,1.048-.009,1.133-.018,2.2.5,2.721a2.43,2.43,0,0,0,1.712.488h8.283c1.784.051,1.791.016,2.553-2.05.167-.449.358-.971.6-1.575l6.342-16.921a5.121,5.121,0,0,1,9.231-1.006l5.16,13.758a4.571,4.571,0,0,1,.282,4.029,4.162,4.162,0,0,1-3.629,2.6l-8.256,0a.741.741,0,0,0-.606.1.56.56,0,0,0-.234.4.569.569,0,0,0,.168.435.512.512,0,0,0,.434.177l29.01-.021a3.706,3.706,0,0,0,2.4-.964,4.1,4.1,0,0,0,1.2-2.927,4.174,4.174,0,0,0-1.235-2.965,3.219,3.219,0,0,0-2.337-.922H659.3c-5.745-.614-7.675-4.524-7.606-7.689a8.041,8.041,0,0,1,7.556-7.88l30.9,0a4.02,4.02,0,0,1,3.865,4.128,4.112,4.112,0,0,1-3.831,4.361h-5.41a.933.933,0,0,0-.287.019,1.84,1.84,0,0,0-.163.165c-.081.088-.092.114-.108.494l-.012.231Zm50.48-1.99a2.076,2.076,0,0,1-1.453-.633,2,2,0,0,1,.241-3.051,2.087,2.087,0,0,1,1.66-.379l8.029-.014a2.907,2.907,0,0,0,2.091-4.487l-5.18-13.788a3.629,3.629,0,0,0-6.466.854l-5.217,13.98a11.325,11.325,0,1,1-1.9-11.448l-1.146.956a9.771,9.771,0,1,0,1.646,9.96l5.2-13.93a5.12,5.12,0,0,1,9.231-1.008l5.16,13.758a3.929,3.929,0,0,1,.28,4.029,4.149,4.149,0,0,1-3.626,2.6l-8.254,0a.742.742,0,0,0-.608.1.571.571,0,0,0-.236.4.553.553,0,0,0,.17.431.532.532,0,0,0,.434.179h17.033v1.483H734.783C734.753,910.133,734.719,910.135,734.687,910.135Zm-164.879-.414a11.282,11.282,0,1,1,11.4-11.28A11.355,11.355,0,0,1,569.808,909.721Zm0-21.079a9.8,9.8,0,1,0,9.9,9.8A9.864,9.864,0,0,0,569.808,888.643Zm19.064,13.465-.06-7.291a7.3,7.3,0,1,1,7.294,7.238Zm1.439-7.294.048,5.8,5.741-.04a5.755,5.755,0,1,0-5.789-5.76Z" transform="translate(-481.484 -884.673)" fill="#e44200"/>
      </g>
    </g>
  </g>
</svg>
